<svg xmlns="http://www.w3.org/2000/svg" xmlns:xlink="http://www.w3.org/1999/xlink" width="500" zoomAndPan="magnify" viewBox="0 0 375 374.999991" height="500" preserveAspectRatio="xMidYMid meet" version="1.0"><path fill="#c99471" d="M 236.84375 39.472656 C 225.941406 39.472656 217.105469 30.636719 217.105469 19.738281 C 217.105469 8.835938 225.941406 0 236.84375 0 L 355.261719 0 C 366.164062 0 375 8.835938 375 19.738281 L 375 138.15625 C 375 149.058594 366.164062 157.894531 355.261719 157.894531 C 344.363281 157.894531 335.527344 149.058594 335.527344 138.15625 L 335.527344 67.386719 L 191.585938 211.324219 C 183.878906 219.03125 171.382812 219.03125 163.675781 211.324219 C 155.96875 203.617188 155.96875 191.121094 163.675781 183.414062 L 307.613281 39.472656 Z M 59.210938 78.949219 C 48.308594 78.949219 39.472656 87.785156 39.472656 98.683594 L 39.472656 315.789062 C 39.472656 326.691406 48.308594 335.527344 59.210938 335.527344 L 276.316406 335.527344 C 287.214844 335.527344 296.050781 326.691406 296.050781 315.789062 L 296.050781 225.738281 C 296.050781 214.839844 304.890625 206.003906 315.789062 206.003906 C 326.691406 206.003906 335.527344 214.839844 335.527344 225.738281 L 335.527344 315.789062 C 335.527344 348.492188 309.019531 375 276.316406 375 L 59.210938 375 C 26.507812 375 0 348.492188 0 315.789062 L 0 98.683594 C 0 65.984375 26.507812 39.472656 59.210938 39.472656 L 149.261719 39.472656 C 160.160156 39.472656 168.996094 48.308594 168.996094 59.210938 C 168.996094 70.109375 160.160156 78.949219 149.261719 78.949219 Z M 59.210938 78.949219 " fill-opacity="1" fill-rule="evenodd"/></svg>